<?xml version="1.0" encoding="UTF-8"?>
<svg id="katman_1" xmlns="http://www.w3.org/2000/svg" version="1.1" xmlns:xlink="http://www.w3.org/1999/xlink" viewBox="0 0 141.73 116.27">
  <!-- Generator: Adobe Illustrator 29.6.0, SVG Export Plug-In . SVG Version: 2.1.1 Build 207)  -->
  <defs>
    <style>
      .st0 {
        fill: url(#Adsız_degrade_92);
      }

      .st1 {
        fill: url(#Adsız_degrade_93);
      }

      .st2 {
        fill: url(#Adsız_degrade_97);
      }

      .st3 {
        fill: url(#Adsız_degrade_95);
      }

      .st4 {
        fill: url(#Adsız_degrade_9);
      }

      .st5 {
        fill: url(#Adsız_degrade_94);
      }

      .st6 {
        fill: url(#Adsız_degrade_98);
      }

      .st7 {
        fill: url(#Adsız_degrade_99);
      }

      .st8 {
        fill: url(#Adsız_degrade_91);
      }

      .st9 {
        fill: url(#Adsız_degrade_96);
      }
    </style>
    <linearGradient id="Adsız_degrade_9" data-name="Adsız degrade 9" x1="30.53" y1="23.79" x2="132.85" y2="103.84" gradientTransform="translate(-4.88 -18.78) rotate(-5.09)" gradientUnits="userSpaceOnUse">
      <stop offset="0" stop-color="#6fb960"/>
      <stop offset="1" stop-color="#2d55a3"/>
    </linearGradient>
    <linearGradient id="Adsız_degrade_91" data-name="Adsız degrade 9" x1="48.37" y1=".99" x2="150.69" y2="81.04" gradientTransform="translate(18.41 -58.51) rotate(14.38)" xlink:href="#Adsız_degrade_9"/>
    <linearGradient id="Adsız_degrade_92" data-name="Adsız degrade 9" x1="18.35" y1="39.36" x2="120.67" y2="119.41" xlink:href="#Adsız_degrade_9"/>
    <linearGradient id="Adsız_degrade_93" data-name="Adsız degrade 9" x1=".46" y1="62.23" x2="102.78" y2="142.28" gradientTransform="translate(22.18 -23.82) rotate(14.38)" xlink:href="#Adsız_degrade_9"/>
    <linearGradient id="Adsız_degrade_94" data-name="Adsız degrade 9" x1="105.73" y1="53.48" x2="10.71" y2="100.99" gradientTransform="matrix(1,0,0,1,0,0)" xlink:href="#Adsız_degrade_9"/>
    <linearGradient id="Adsız_degrade_95" data-name="Adsız degrade 9" x1="110.27" y1="62.58" x2="15.26" y2="110.09" gradientTransform="matrix(1,0,0,1,0,0)" xlink:href="#Adsız_degrade_9"/>
    <linearGradient id="Adsız_degrade_96" data-name="Adsız degrade 9" x1="113.9" y1="69.83" x2="18.88" y2="117.33" gradientTransform="matrix(1,0,0,1,0,0)" xlink:href="#Adsız_degrade_9"/>
    <linearGradient id="Adsız_degrade_97" data-name="Adsız degrade 9" x1="118.25" y1="78.53" x2="23.23" y2="126.04" gradientTransform="matrix(1,0,0,1,0,0)" xlink:href="#Adsız_degrade_9"/>
    <linearGradient id="Adsız_degrade_98" data-name="Adsız degrade 9" x1="123.37" y1="88.78" x2="28.36" y2="136.29" gradientTransform="matrix(1,0,0,1,0,0)" xlink:href="#Adsız_degrade_9"/>
    <linearGradient id="Adsız_degrade_99" data-name="Adsız degrade 9" x1="129.54" y1="101.12" x2="34.53" y2="148.62" gradientTransform="matrix(1,0,0,1,0,0)" xlink:href="#Adsız_degrade_9"/>
  </defs>
  <g>
    <path class="st4" d="M100.7,28.81l-.03-.1-3.31,1.18-1.69.6-.43,1.75-.15.6-7.46-6.09-4.69-3.82-.72,6.01-.73,6.07-2.56.9-12.57-17.48-7.19-10,1.18,12.26,2.1,21.94-8.97-11.01-6.24-7.67.33,9.88.45,13.22-10.35,3.62c-2.41-8.24-1.72-16.96,2.01-24.77,4.01-8.4,11.06-14.73,19.83-17.83s18.23-2.6,26.63,1.41c6.85,3.27,12.32,8.56,15.79,15.16l3.17-1.12C96.54,6.73,76.67-1.52,58.41,4.93c-19.88,7.03-30.3,28.84-23.27,48.71.15.43.31.85.48,1.28l15.81-5.54-.53-15.66,15.91,19.55-3.15-32.89,14.03,19.51,6.86-2.42.98-8.12,11.55,9.42,1.4-5.72,30.03-10.63c-.16-.52-.33-1.05-.51-1.57s-.36-.98-.55-1.47l-26.73,9.45Z"/>
    <rect class="st8" x="111.31" y="27.51" width="22.61" height="3.52" transform="translate(-2.75 42.53) rotate(-19.46)"/>
    <path class="st0" d="M101.39,34.89l-2.37,9.7-10.89-8.89-.43,3.55-11.7,4.14-7.71-10.72,3.02,31.5-16.65-20.46.25,7.39-36.08,12.69c.49,1.01,1.01,2,1.58,2.95l22.94-8.11v.04s12.67-4.43,12.67-4.43l2.28-.8,10.44,12.83,6.94,8.53-1.05-10.95-1.85-19.24.52.72,1.46,2.03,2.35-.83,11.7-4.14,1.57-.55,6.54,5.33,4.09,3.34,1.25-5.12,1.94-7.95,1.55-.55c.84,7.12-.55,14.37-4.03,20.75-4.12,7.55-10.86,13.29-18.97,16.16-8.16,2.88-17.04,2.64-25.01-.69-5.62-2.35-10.48-6.08-14.14-10.81l-3.29,1.16c9.69,13.27,27.27,19.23,43.55,13.47,18.48-6.53,28.78-25.84,24.5-44.5l-6.96,2.47Z"/>
    <rect class="st1" x="14.25" y="55.84" width="18.21" height="3.52" transform="translate(-17.86 11.07) rotate(-19.46)"/>
  </g>
  <g>
    <path class="st5" d="M4.04,87.2h4.68l6.08,17.99.95,3.08h.23l.99-3.08,6.39-17.99h4.64l-9.89,27.23h-4.45l-9.62-27.23Z"/>
    <path class="st3" d="M31.68,87.2h4.26v27.23h-4.26v-27.23Z"/>
    <path class="st9" d="M42.14,87.2h9.58c1.62,0,3.11.36,4.45,1.06,1.34.71,2.4,1.7,3.18,2.97.77,1.27,1.16,2.7,1.16,4.3,0,1.83-.59,3.45-1.77,4.87-1.18,1.42-2.66,2.37-4.43,2.85l-.04.19,7.45,10.76v.23h-4.94l-7.19-10.65h-3.19v10.65h-4.26v-27.23ZM51.61,99.82c1.27,0,2.34-.41,3.23-1.22.89-.81,1.33-1.85,1.33-3.12,0-.71-.18-1.39-.53-2.05-.36-.66-.86-1.2-1.52-1.62-.66-.42-1.44-.63-2.36-.63h-5.36v8.63h5.21Z"/>
    <path class="st2" d="M65.41,87.2h16.54v4.07h-12.28v7.53h11.07v4.03h-11.07v7.53h12.28v4.07h-16.54v-27.23Z"/>
    <path class="st6" d="M92.1,113.17c-2.18-1.24-3.89-2.95-5.13-5.13-1.24-2.18-1.86-4.59-1.86-7.22s.62-5.04,1.86-7.22c1.24-2.18,2.95-3.89,5.13-5.13,2.18-1.24,4.59-1.86,7.22-1.86,2.05,0,3.92.38,5.61,1.14,1.69.76,3.18,1.86,4.47,3.31l-3.04,2.93c-.94-1.12-1.98-1.95-3.12-2.49-1.14-.54-2.45-.82-3.92-.82-1.83,0-3.49.42-5,1.25-1.51.84-2.71,2.02-3.59,3.56-.89,1.53-1.33,3.31-1.33,5.34s.44,3.81,1.33,5.34c.89,1.53,2.08,2.72,3.59,3.56,1.51.84,3.18,1.25,5,1.25,3.04,0,5.63-1.27,7.76-3.8l3.08,2.97c-1.32,1.55-2.9,2.75-4.75,3.61-1.85.86-3.88,1.29-6.08,1.29-2.64,0-5.04-.62-7.22-1.86Z"/>
    <path class="st7" d="M122.6,87.2h4.87l10.23,27.23h-4.72l-2.43-6.96h-10.99l-2.47,6.96h-4.72l10.23-27.23ZM129.1,103.51l-2.89-8.1-1.06-3.16h-.23l-1.06,3.16-2.89,8.1h8.14Z"/>
  </g>
</svg>